HIERARCHY
ROOT root
{
	OFFSET 0.000000 0.000000 0.000000
	CHANNELS 6 Xposition Yposition Zposition Zrotation Yrotation Xrotation
	JOINT lhip
	{
		OFFSET 0.058581 -0.082280 -0.017664
		CHANNELS 3 Zrotation Yrotation Xrotation
		JOINT lknee
		{
			OFFSET 0.043451 -0.386469 0.008037
			CHANNELS 3 Zrotation Yrotation Xrotation
			JOINT lankle
			{
				OFFSET -0.014790 -0.426874 -0.037428
				CHANNELS 3 Zrotation Yrotation Xrotation
				JOINT ltoe
				{
					OFFSET 0.041054 -0.060286 0.122042
					CHANNELS 3 Zrotation Yrotation Xrotation
					End Site
					{
						OFFSET 0.000000 0.000000 0.000000
					}
				}
			}
		}
	}
	JOINT rhip
	{
		OFFSET -0.060310 -0.090513 -0.013543
		CHANNELS 3 Zrotation Yrotation Xrotation
		JOINT rknee
		{
			OFFSET -0.043257 -0.383688 -0.004843
			CHANNELS 3 Zrotation Yrotation Xrotation
			JOINT rankle
			{
				OFFSET 0.019056 -0.420046 -0.034562
				CHANNELS 3 Zrotation Yrotation Xrotation
				JOINT rtoe
				{
					OFFSET -0.034840 -0.062106 0.130323
					CHANNELS 3 Zrotation Yrotation Xrotation
					End Site
					{
						OFFSET 0.000000 0.000000 0.000000
					}
				}
			}
		}
	}
	JOINT lowerback
	{
		OFFSET 0.004439 0.124404 -0.038385
		CHANNELS 3 Zrotation Yrotation Xrotation
		JOINT upperback
		{
			OFFSET 0.004488 0.137956 0.026820
			CHANNELS 3 Zrotation Yrotation Xrotation
			JOINT chest
			{
				OFFSET -0.002265 0.056032 0.002855
				CHANNELS 3 Zrotation Yrotation Xrotation
				JOINT lowerneck
				{
					OFFSET -0.013390 0.211636 -0.033468
					CHANNELS 3 Zrotation Yrotation Xrotation
					JOINT upperneck
					{
						OFFSET 0.010113 0.088937 0.050410
						CHANNELS 3 Zrotation Yrotation Xrotation
						End Site
						{
							OFFSET 0.000000 0.000000 0.000000
						}
					}
				}
				JOINT lclavicle
				{
					OFFSET 0.071702 0.114000 -0.018898
					CHANNELS 3 Zrotation Yrotation Xrotation
					JOINT lshoulder
					{
						OFFSET 0.122921 0.045205 -0.019046
						CHANNELS 3 Zrotation Yrotation Xrotation
						JOINT lelbow
						{
							OFFSET 0.255332 -0.015649 -0.022946
							CHANNELS 3 Zrotation Yrotation Xrotation
							JOINT lwrist
							{
								OFFSET 0.265709 0.012698 -0.007375
								CHANNELS 3 Zrotation Yrotation Xrotation
								End Site
								{
									OFFSET 0.000000 0.000000 0.000000
								}
							}
						}
					}
				}
				JOINT rclavicle
				{
					OFFSET -0.082954 0.112472 -0.023707
					CHANNELS 3 Zrotation Yrotation Xrotation
					JOINT rshoulder
					{
						OFFSET -0.113228 0.046853 -0.008472
						CHANNELS 3 Zrotation Yrotation Xrotation
						JOINT relbow
						{
							OFFSET -0.260127 -0.014369 -0.031269
							CHANNELS 3 Zrotation Yrotation Xrotation
							JOINT rwrist
							{
								OFFSET -0.269108 0.006794 -0.006027
								CHANNELS 3 Zrotation Yrotation Xrotation
								End Site
								{
									OFFSET 0.000000 0.000000 0.000000
								}
							}
						}
					}
				}
			}
		}
	}
}
MOTION
Frames: 7
Frame Time: 0.033333
-0.066693 -0.579507 0.993914 -87.967450 2.795838 82.883814 -0.570818 2.886662 13.428416 -3.303361 -13.136501 4.581263 5.330437 10.109492 -13.479049 0.000000 -0.000000 0.000000 -3.177123 -0.498624 -17.496693 -1.252590 -11.034588 52.279138 5.861695 -10.154207 -6.717886 0.000000 -0.000000 0.000000 -0.765311 -4.775952 16.022355 2.140542 -0.213254 1.099135 -0.512053 -1.778310 3.295683 1.959302 3.620189 9.311418 -5.041337 -0.223236 17.599375 -26.004429 2.763925 0.634943 -53.666375 -9.790720 7.246765 10.929452 -23.553887 2.393677 -4.384113 -3.695593 -5.668545 27.662843 0.052840 1.833994 53.196204 7.030958 11.910360 -15.790091 23.108979 -13.305279 3.647711 4.094041 -7.545405 
-0.073118 -0.580877 0.994378 -87.239321 3.198131 82.789409 0.076355 3.232619 14.066169 -3.339908 -13.926021 4.394190 5.111502 9.783909 -13.828650 0.000000 -0.000000 0.000000 -3.478283 -1.297580 -19.544863 -1.377927 -12.945718 51.582452 5.802660 -11.078829 -7.457060 0.000000 -0.000000 0.000000 -0.678806 -5.433542 15.766137 2.358840 -0.537564 1.231590 -0.249540 -2.296106 3.705382 1.759913 3.781813 9.747599 -4.804233 -0.174919 17.583875 -25.349280 2.278258 1.126677 -54.130082 -10.385681 7.293683 11.051331 -24.037277 1.961709 -3.314415 -2.744281 -7.040871 27.771281 -0.090834 2.075283 53.190407 6.870140 11.657011 -15.969007 23.275779 -13.224016 3.557494 3.846085 -7.705421 
-0.079735 -0.581165 0.994495 -86.641923 3.469238 82.737187 0.595597 3.507536 14.524078 -3.363036 -14.514702 4.432736 4.521919 9.290646 -14.004854 0.000000 -0.000000 0.000000 -3.661954 -1.680044 -20.970334 -1.401414 -14.778446 48.443575 6.007227 -11.621945 -6.784578 0.000000 -0.000000 0.000000 -0.759867 -5.775395 16.407951 2.548451 -0.705086 0.790367 0.165129 -2.479144 3.555994 1.723697 3.575133 9.805879 -4.467678 -0.259266 17.821878 -25.102017 2.134058 1.058515 -54.221002 -10.991103 7.495626 10.679936 -24.527852 2.629268 -3.100527 -2.822326 -6.727209 27.815093 -0.842399 2.086607 53.350757 6.255128 11.502566 -15.574226 23.696026 -13.098994 3.404833 3.990355 -8.100966 
-0.090360 -0.581008 0.993098 -86.154348 3.741956 82.645370 1.286164 3.620246 15.557103 -3.470862 -14.644378 3.994809 4.157936 8.967379 -14.546410 0.000000 -0.000000 0.000000 -3.560483 -1.781385 -21.450709 -0.416553 -15.893595 41.174485 6.325473 -11.444401 -6.540503 0.000000 -0.000000 0.000000 -0.718659 -6.057046 16.425254 2.617612 -0.866152 0.956322 0.481394 -2.608467 3.629816 1.689726 3.431927 9.762594 -3.895703 -0.639526 17.529320 -24.807943 2.148395 1.322175 -54.517002 -11.990344 7.713222 10.463797 -26.201716 2.829426 -3.608725 -3.175707 -6.905546 27.731564 -0.965196 2.256584 54.156141 5.562459 11.397753 -15.653046 22.823751 -12.778974 3.708691 3.788644 -7.859126 
-0.096372 -0.580740 0.991704 -85.751927 3.878343 82.922302 1.543290 3.537420 15.455396 -3.569221 -14.629267 4.405031 4.332592 8.729885 -15.205719 0.000000 -0.000000 0.000000 -3.479955 -1.805669 -21.786926 0.514911 -16.089901 35.739710 6.306009 -11.393570 -6.046375 0.000000 -0.000000 0.000000 -0.616284 -6.195103 16.414446 2.648828 -1.075306 0.853101 0.660032 -2.691096 3.563493 1.643158 3.514348 9.598365 -3.534903 -0.749540 17.334586 -24.837886 2.164041 1.394801 -54.634590 -12.308100 7.913899 10.340736 -26.919676 2.968892 -3.187513 -3.598559 -6.999142 27.867332 -1.218798 2.323113 54.355896 5.247701 11.462821 -15.146001 22.507400 -12.235438 3.535809 3.785111 -7.788557 
-0.106491 -0.579771 0.988989 -85.398008 3.822972 82.995303 1.867633 3.905217 16.075527 -3.624289 -14.736976 4.370157 3.854127 8.019902 -15.670078 0.000000 -0.000000 0.000000 -3.204498 -2.022534 -21.294419 1.123025 -15.969196 28.267415 7.600886 -10.722216 -6.033840 0.000000 -0.000000 0.000000 -0.614080 -6.091884 16.399003 2.568411 -1.335723 0.837546 0.822426 -2.880810 3.488460 1.816328 3.467503 9.454081 -3.154287 -1.065878 17.557106 -24.800232 2.188045 1.680841 -54.834187 -12.870634 8.291692 10.413845 -27.834159 3.662481 -3.361719 -4.218338 -6.354211 28.122061 -1.315253 2.446981 54.850295 5.120192 11.389378 -14.501395 21.136631 -11.742970 3.795258 3.771687 -7.710470 
-0.116896 -0.579141 0.985600 -85.022496 3.564060 83.372525 1.838087 4.106957 16.050835 -3.600551 -14.808817 5.008501 3.479325 7.555911 -16.704879 0.000000 -0.000000 0.000000 -2.906843 -2.416783 -20.869705 1.399115 -14.836828 20.341940 8.031455 -9.876617 -6.137290 0.000000 -0.000000 0.000000 -0.541512 -5.893651 15.935986 2.438541 -1.621728 0.832924 0.851524 -2.917855 3.561769 1.843200 3.494185 9.083966 -3.028068 -1.363041 17.723448 -24.838585 2.245487 1.503490 -55.086277 -13.346160 8.709035 10.350314 -28.959928 3.977238 -2.847645 -4.992265 -5.010161 28.257565 -1.452954 2.620904 55.538454 4.919964 11.482884 -14.245469 19.715471 -11.014053 3.874415 3.781479 -6.838728 
